<?xml version="1.0" encoding="utf-8"?>
<!-- Generator: Adobe Illustrator 27.0.0, SVG Export Plug-In . SVG Version: 6.00 Build 0)  -->
<svg version="1.1" id="Layer_1" xmlns="http://www.w3.org/2000/svg" xmlns:xlink="http://www.w3.org/1999/xlink" x="0px" y="0px"
	 viewBox="0 0 229.9 237.6" style="enable-background:new 0 0 229.9 237.6;" xml:space="preserve">
<style type="text/css">
	.st0{fill:#F75023;stroke:#000000;stroke-width:0.3491;stroke-miterlimit:10;}
</style>
<g>
	<path class="st0" d="M144.9,230.1h-120c-0.8,0-1.5-0.7-1.5-1.5s0.7-1.5,1.5-1.5h120c0.8,0,1.5,0.7,1.5,1.5S145.7,230.1,144.9,230.1
		z"/>
	<path class="st0" d="M178.2,237.4h-83c-0.8,0-1.5-0.7-1.5-1.5s0.7-1.5,1.5-1.5h83c0.8,0,1.5,0.7,1.5,1.5S179,237.4,178.2,237.4z"/>
	<path class="st0" d="M197.1,237.4h-10.4c-0.8,0-1.5-0.7-1.5-1.5s0.7-1.5,1.5-1.5h10.4c0.8,0,1.5,0.7,1.5,1.5
		S197.9,237.4,197.1,237.4z"/>
	<path class="st0" d="M216.2,174.4h-78.7c-0.8,0-1.5-0.7-1.5-1.5s0.7-1.5,1.5-1.5h78.7c5.8,0,10.5-4.7,10.5-10.5V22.5
		c0-5.8-4.7-10.5-10.5-10.5H40.3c-0.8,0-1.5-0.7-1.5-1.5S39.4,9,40.3,9h175.9c7.4,0,13.5,6.1,13.5,13.5v138.3
		C229.7,168.3,223.6,174.3,216.2,174.4L216.2,174.4z M112.1,174.4H24.1c-7.4,0-13.5-6.1-13.5-13.5V22.5c0-3.6,1.4-7.1,4.1-9.6
		c0.6-0.6,1.6-0.6,2.2,0c0.6,0.6,0.6,1.6,0,2.2c-2,2-3.1,4.6-3.1,7.4v138.3c0,5.8,4.7,10.5,10.5,10.5h87.9c0.8,0,1.5,0.7,1.5,1.5
		C113.6,173.7,112.9,174.3,112.1,174.4L112.1,174.4z"/>
	<path class="st0" d="M215.9,137.2H74.2c-0.8,0-1.5-0.7-1.5-1.5s0.7-1.5,1.5-1.5h140.2V24.3h-48.1c-0.8,0-1.5-0.7-1.5-1.5
		s0.7-1.5,1.5-1.5h49.7c0.8,0,1.5,0.7,1.5,1.5v112.9C217.4,136.5,216.7,137.2,215.9,137.2L215.9,137.2z M48.7,137.2H24
		c-0.8,0-1.5-0.7-1.5-1.5V22.8c0-0.8,0.7-1.5,1.5-1.5h116.8c0.8,0,1.5,0.7,1.5,1.5s-0.7,1.5-1.5,1.5H25.5v109.8h23.2
		c0.8,0,1.5,0.7,1.5,1.5C50.3,136.5,49.6,137.2,48.7,137.2L48.7,137.2z"/>
	<path class="st0" d="M155,213.3L155,213.3H85.3c-0.5,0-0.9-0.2-1.2-0.6c-0.3-0.4-0.4-0.9-0.3-1.3l10.3-39c0.2-0.7,0.8-1.1,1.5-1.1
		h49.2c0.7,0,1.3,0.5,1.5,1.1l10.2,38.8c0.1,0.2,0.1,0.4,0.1,0.6C156.5,212.7,155.9,213.3,155,213.3L155,213.3z M87.3,210.3H153
		l-9.5-35.9H96.7L87.3,210.3z"/>
	<path class="st0" d="M185.8,222.8H72.1c-0.8,0-1.5-0.7-1.5-1.5s0.7-1.5,1.5-1.5h112.2v-6.4H56v0.1c0,0.8-0.7,1.5-1.5,1.5
		s-1.5-0.7-1.5-1.5v-1.6c0-0.8,0.7-1.5,1.5-1.5h131.3c0.8,0,1.5,0.7,1.5,1.5v9.5C187.3,222.2,186.7,222.8,185.8,222.8L185.8,222.8z"
		/>
	<path class="st0" d="M120.2,166.4c-3.3,0-6-2.7-6-6c0-3.3,2.7-6,6-6s6,2.7,6,6C126.2,163.7,123.5,166.4,120.2,166.4z M120.2,157.3
		c-1.6,0-3,1.3-3,3c0,1.6,1.3,3,3,3c1.6,0,3-1.3,3-3C123.1,158.7,121.8,157.3,120.2,157.3z"/>
	<path class="st0" d="M1.7,75.8c-0.8,0-1.5-0.7-1.5-1.5V15C0.2,6.8,6.8,0.2,15,0.2h34.1c0.8,0,1.5,0.7,1.5,1.5s-0.7,1.5-1.5,1.5H15
		C8.5,3.2,3.2,8.5,3.2,15v59.3C3.2,75.1,2.5,75.8,1.7,75.8L1.7,75.8z"/>
	<path class="st0" d="M48.3,125.2c-0.4,0-0.8-0.1-1.1-0.4l-9.2-9.2c-0.6-0.6-0.6-1.6,0-2.2l9.2-9.2c0.6-0.6,1.6-0.6,2.2,0l9.2,9.2
		c0.3,0.3,0.4,0.7,0.4,1.1c0,0.4-0.2,0.8-0.4,1.1l-9.2,9.2C49.1,125,48.7,125.2,48.3,125.2L48.3,125.2z M41.3,114.5l7,7l7-7l-7-7
		L41.3,114.5z"/>
	<path class="st0" d="M191.6,125.2c-0.4,0-0.8-0.1-1.1-0.4l-9.2-9.2c-0.6-0.6-0.6-1.6,0-2.2l9.2-9.2c0.6-0.6,1.6-0.6,2.2,0l9.2,9.2
		c0.3,0.3,0.4,0.7,0.4,1.1c0,0.4-0.2,0.8-0.4,1.1l-9.2,9.2C192.3,125,192,125.2,191.6,125.2L191.6,125.2z M184.5,114.5l7,7l7-7l-7-7
		L184.5,114.5z"/>
	<path class="st0" d="M184.9,116H60c-0.8,0-1.5-0.7-1.5-1.5s0.7-1.5,1.5-1.5h124.9c0.8,0,1.5,0.7,1.5,1.5S185.8,116,184.9,116z"/>
	<path class="st0" d="M102.2,101.4c-0.1,0-0.3,0-0.4-0.1l-28.6-7.7c-0.7-0.2-1.1-0.8-1.1-1.5V56.1c0-0.5,0.2-0.9,0.6-1.2
		c0.4-0.3,0.9-0.4,1.3-0.3l28.6,7.7c0.7,0.2,1.1,0.8,1.1,1.5v36.1c0,0.5-0.2,0.9-0.6,1.2C102.9,101.3,102.5,101.4,102.2,101.4
		L102.2,101.4z M75.2,91l25.5,6.9V64.9l-25.5-6.8V91z"/>
	<path class="st0" d="M102.2,101.4c-0.3,0-0.7-0.1-0.9-0.3c-0.4-0.3-0.6-0.7-0.6-1.2V63.8c0-0.7,0.5-1.3,1.1-1.5l16.7-4.5
		c0.5-0.1,0.9,0,1.3,0.3c0.4,0.3,0.6,0.7,0.6,1.2v2.9l10.7,2.9c0.7,0.2,1.1,0.8,1.1,1.5v25.6c0,0.7-0.5,1.3-1.1,1.5l-28.6,7.7
		C102.5,101.4,102.3,101.4,102.2,101.4L102.2,101.4z M103.7,64.9v32.9l25.5-6.9V67.7l-10.7-2.9c-0.7-0.2-1.1-0.8-1.1-1.5v-2.1
		L103.7,64.9z"/>
	<path class="st0" d="M102.2,65.3c-0.1,0-0.3,0-0.4-0.1l-28.6-7.7c-0.7-0.2-1.1-0.8-1.1-1.5c0-0.7,0.5-1.3,1.1-1.5l28.6-7.7
		c0.3-0.1,0.5-0.1,0.8,0l16.7,4.5c0.7,0.2,1.1,0.8,1.1,1.5v6.4c0,0.7-0.5,1.3-1.1,1.5l-16.7,4.5C102.5,65.3,102.3,65.3,102.2,65.3
		L102.2,65.3z M79.5,56.1l22.7,6.1l15.2-4.1v-4L102.2,50L79.5,56.1z"/>
	<path class="st0" d="M138.7,70.2c-0.1,0-0.3,0-0.4-0.1l-19.8-5.3c-0.7-0.2-1.1-0.8-1.1-1.5v-25c0-0.5,0.2-0.9,0.6-1.2
		c0.4-0.3,0.9-0.4,1.3-0.3l19.8,5.3c0.7,0.2,1.1,0.8,1.1,1.5v25c0,0.5-0.2,0.9-0.6,1.2C139.4,70.1,139.1,70.2,138.7,70.2L138.7,70.2
		z M120.4,62.2l16.8,4.5V44.9l-16.8-4.5V62.2z"/>
	<path class="st0" d="M138.7,70.2c-0.3,0-0.7-0.1-0.9-0.3c-0.4-0.3-0.6-0.7-0.6-1.2v-25c0-0.7,0.5-1.3,1.1-1.5l19.8-5.3
		c0.5-0.1,0.9,0,1.3,0.3c0.4,0.3,0.6,0.7,0.6,1.2v25c0,0.7-0.5,1.3-1.1,1.5l-19.8,5.3C139,70.2,138.9,70.2,138.7,70.2L138.7,70.2z
		 M140.3,44.9v21.9l16.8-4.5V40.4L140.3,44.9z"/>
	<path class="st0" d="M138.7,45.2c-0.1,0-0.3,0-0.4-0.1l-19.8-5.3c-0.7-0.2-1.1-0.8-1.1-1.5c0-0.7,0.5-1.3,1.1-1.5l19.8-5.3
		c0.3-0.1,0.5-0.1,0.8,0l19.8,5.3c0.7,0.2,1.1,0.8,1.1,1.5c0,0.7-0.5,1.3-1.1,1.5l-19.8,5.3C139,45.2,138.9,45.2,138.7,45.2
		L138.7,45.2z M124.8,38.4l13.9,3.7l13.9-3.7l-13.9-3.7L124.8,38.4z"/>
	<path class="st0" d="M144.1,104.4c-0.1,0-0.3,0-0.4-0.1l-22.1-5.9c-0.7-0.2-1.1-0.8-1.1-1.5v-2.4c0-0.7,0.5-1.3,1.1-1.5l7.7-2.1
		V71.4c0-0.5,0.2-0.9,0.6-1.2c0.4-0.3,0.9-0.4,1.3-0.3l13.3,3.6c0.7,0.2,1.1,0.8,1.1,1.5v27.9c0,0.5-0.2,0.9-0.6,1.2
		C144.7,104.3,144.4,104.4,144.1,104.4L144.1,104.4z M123.5,95.8l19.1,5.1V76.1l-10.3-2.8v18.8c0,0.7-0.5,1.3-1.1,1.5L123.5,95.8
		L123.5,95.8z"/>
	<path class="st0" d="M144.1,104.4c-0.3,0-0.7-0.1-0.9-0.3c-0.4-0.3-0.6-0.7-0.6-1.2V75c0-0.7,0.5-1.3,1.1-1.5l22.1-5.9
		c0.5-0.1,0.9,0,1.3,0.3c0.4,0.3,0.6,0.7,0.6,1.2V97c0,0.7-0.5,1.3-1.1,1.5l-22.1,5.9C144.3,104.4,144.2,104.4,144.1,104.4
		L144.1,104.4z M145.6,76.1v24.8l19.1-5.1l0-24.8L145.6,76.1z"/>
	<path class="st0" d="M144.1,76.5c-0.1,0-0.3,0-0.4-0.1l-13.3-3.6c-0.7-0.2-1.1-0.8-1.1-1.5v-4.7c0-0.7,0.5-1.3,1.1-1.5l0.2,0
		c0.3-0.1,0.5-0.1,0.8,0l7.4,2l12.7-3.4c0.3-0.1,0.5-0.1,0.8,0l14.4,3.9c0.7,0.2,1.1,0.8,1.1,1.5c0,0.7-0.5,1.3-1.1,1.5l-22.1,5.9
		C144.3,76.5,144.2,76.5,144.1,76.5L144.1,76.5z M132.3,70.2l11.8,3.2l16.2-4.4l-8.5-2.3l-12.7,3.4c-0.3,0.1-0.5,0.1-0.8,0l-6-1.6
		L132.3,70.2z"/>
	<path class="st0" d="M80.8,237.4H47.7c-0.8,0-1.5-0.7-1.5-1.5s0.7-1.5,1.5-1.5h33.1c0.8,0,1.5,0.7,1.5,1.5S81.6,237.4,80.8,237.4z"
		/>
	<path class="st0" d="M181.2,88.9h-26c-0.8,0-1.5-0.7-1.5-1.5s0.7-1.5,1.5-1.5h24.4V32.6c0-0.8,0.7-1.5,1.5-1.5s1.5,0.7,1.5,1.5
		v54.8C182.8,88.2,182.1,88.9,181.2,88.9L181.2,88.9z"/>
</g>
</svg>
