<?xml version="1.0" encoding="utf-8"?>
<!-- Generator: Adobe Illustrator 27.0.0, SVG Export Plug-In . SVG Version: 6.00 Build 0)  -->
<svg version="1.1" id="developer" xmlns="http://www.w3.org/2000/svg" xmlns:xlink="http://www.w3.org/1999/xlink" x="0px" y="0px"
	 viewBox="0 0 146.1 143.9" style="enable-background:new 0 0 146.1 143.9;" xml:space="preserve">
<style type="text/css">
	.st0{fill-rule:evenodd;clip-rule:evenodd;}
</style>
<path id="developer1" class="st0" d="M36.6,140.1h72.8v3.8H36.6V140.1z M73,98.5c9.1,0,16.5,7.3,16.5,16.2c0,9-7.4,16.2-16.5,16.2
	c-9.1,0-16.5-7.2-16.5-16.2C56.5,105.8,63.9,98.5,73,98.5z M79.3,108.2l6.7,6.6l-6.7,6.6l-1.9-1.9l4.7-4.7l-4.7-4.7L79.3,108.2z
	 M68.7,110.1l-4.7,4.7l4.7,4.7l-1.9,1.9l-6.7-6.6l6.7-6.6L68.7,110.1z M77,108.3l-5.4,13.7l-2.5-1l5.5-13.7L77,108.3L77,108.3z
	 M97.3,46.1h-2.9c0,7.1-3.7,13.3-9.2,17.1l2.6,4.3l-14,9.7l9.7,11.7l10.3-19.2c16.2,0.4,29.3,13.6,29.3,29.7v20.5h-11.4l-4.2,18.5
	H38.6l-4.2-18.5H23V99.4c0-16.1,13.1-29.3,29.3-29.7l10.3,19.2l9.7-11.7l-14-9.7l2.6-4.3c-5.5-3.8-9.1-10-9.2-17.1h-2.9
	c-5.3,0-7.9-6.4-4.2-10l0.3-18.4C44.9,12.6,59.5,3.4,64.2,2C72-0.4,96.4-0.2,95.9,0.3c-3.4,2.6-4.8,5.4-3.7,8.5
	c0.7,2,6.7,3.3,8.4,5.3c2.3,2.6,1.6,18.4,1.7,22.7C105,40.2,102.2,46.1,97.3,46.1L97.3,46.1z M108.7,94.6H37.3c-2.3,0-4.1,1.7-4.2,4
	l8.3,36.5h63.2l8.3-36.5C112.8,96.4,111,94.6,108.7,94.6z"/>
</svg>
