<?xml version="1.0" encoding="utf-8"?>
<!-- Generator: Adobe Illustrator 27.0.0, SVG Export Plug-In . SVG Version: 6.00 Build 0)  -->
<svg version="1.1" id="Layer_1" xmlns="http://www.w3.org/2000/svg" xmlns:xlink="http://www.w3.org/1999/xlink" x="0px" y="0px"
	 viewBox="0 0 143.9 143.9" style="enable-background:new 0 0 143.9 143.9;" xml:space="preserve">
<g>
	<path d="M74.1,32.2l-5.5-12.6c-1.4,0.6-3,1-4.6,1c-1.6,0-3.1-0.3-4.6-1L54,32.2l10.1,4.6L74.1,32.2z"/>
	<path d="M103.6,53.8l-3.4,6.1l3.4,6.1h6.9l3.4-6.1l-3.4-6.1H103.6z"/>
	<path d="M64.1,9l-3.2,7.4c2,0.8,4.4,0.8,6.4,0L64.1,9z"/>
	<path d="M53.5,82.2h8.8V40.6c0-0.2,0-0.5,0.1-0.7l-8.9-4.1V82.2z"/>
	<path d="M87.6,95.6c-0.6,0-1.2-0.3-1.5-0.9l-8.1-14.2V84c0,1-0.8,1.8-1.7,1.8H64.1h0h0H51.7C50.8,85.8,50,85,50,84V33.1
		c0,0,0,0,0-0.1c0-0.1,0-0.2,0-0.3v0c0-0.1,0-0.3,0.1-0.4L62.4,4c0.3-0.6,0.9-1,1.6-1c0.7,0,1.3,0.4,1.6,1l12.3,28.4
		c0,0.1,0,0.3,0.1,0.4v0c0,0.1,0,0.2,0,0.3c0,0,0,0,0,0.1v6L86,25c0.3-0.5,0.9-0.9,1.5-0.9h32C114.1,14.3,105,7.4,92.2,3.5
		C71.4-2.9,49.5-0.4,33.4,10C19.7,18.9,11.3,32.7,8.9,50c0,0.2-0.1,0.4-0.2,0.5c0.2,0.5,1.2,2.2,5.2,5.7c0.6,0.5,0.8,1.4,0.4,2.1
		c0,0.1-4.2,8.4-14.2,26.7c0,0.1-0.1,0.2-0.2,0.3C0.2,85.8,1.3,88,8.8,92c0.8,0.4,1.1,1.3,0.8,2.1l-2.8,8.4l3.2,1.8
		c0.8,0.5,1.1,1.4,0.8,2.3l-1.7,3.7c2,1,5,2.8,6.5,5.9c0.2,0.4,0.2,0.9,0.1,1.3c-0.7,2.2-1.9,8.4,0.6,11.1c1.6,1.7,4.7,2,9,1
		l17.8-4.5c0.4-0.1,0.9,0,1.3,0.2c7.7,4.8,11,14.4,12,18.7l55.3-23.5c-1.6-7-1.2-15.3,1-24.6L87.6,95.6L87.6,95.6z M30.5,58.1h-9.7
		c-0.9,0-1.7-0.8-1.7-1.8c0-1,0.8-1.8,1.7-1.8h9.7c0.9,0,1.7,0.8,1.7,1.8C32.3,57.4,31.4,58.1,30.5,58.1z M35.8,51.4h-15
		c-0.9,0-1.7-0.8-1.7-1.8c0-1,0.8-1.8,1.7-1.8h15c0.9,0,1.7,0.8,1.7,1.8S36.8,51.4,35.8,51.4z M43.3,45.1H17.7
		c-0.9,0-1.7-0.8-1.7-1.8c0-1,0.8-1.8,1.7-1.8h25.6c0.9,0,1.7,0.8,1.7,1.8C45,44.3,44.3,45.1,43.3,45.1z M43.3,38h-19
		c-0.9,0-1.7-0.8-1.7-1.8c0-1,0.8-1.8,1.7-1.8h19c0.9,0,1.7,0.8,1.7,1.8C45,37.3,44.3,38,43.3,38z"/>
	<path d="M74.6,45.1v-9.3l-8.9,4.1c0.1,0.2,0.1,0.5,0.1,0.7v41.6h8.8v-7.7l-7.9-13.8c-0.3-0.5-0.3-1.2,0-1.8L74.6,45.1z"/>
	<path d="M93.6,36.3L80.2,59.9l13.4,23.5h26.8l13.4-23.5l-13.4-23.5H93.6z M127.4,60.7L118,77.2c-0.3,0.5-0.9,0.9-1.5,0.9H97.7
		c-0.6,0-1.2-0.3-1.5-0.9l-9.5-16.5c-0.3-0.5-0.3-1.2,0-1.8l9.4-16.5c0.3-0.5,0.9-0.9,1.5-0.9h18.9c0.6,0,1.2,0.3,1.5,0.9l9.4,16.5
		C127.8,59.5,127.8,60.2,127.4,60.7L127.4,60.7z"/>
	<path d="M122.5,27.5L122.5,27.5H88.7L70.2,59.8l18.4,32.3h36.8l18.4-32.3l-18.4-32.3H122.5z M137.4,60.7L123,86
		c-0.3,0.5-0.9,0.9-1.5,0.9H92.6c-0.6,0-1.2-0.3-1.5-0.9L76.7,60.7c-0.3-0.5-0.3-1.2,0-1.8l14.4-25.3c0.3-0.5,0.9-0.9,1.5-0.9h28.9
		c0.6,0,1.2,0.3,1.5,0.9l14.4,25.3C137.7,59.5,137.7,60.2,137.4,60.7L137.4,60.7z"/>
	<path d="M98.6,45.1l-8.5,14.8l8.5,14.8h16.9l8.5-14.8L115.5,45L98.6,45.1z M117.5,60.7l-4.4,7.8c-0.3,0.5-0.9,0.9-1.5,0.9h-8.9
		c-0.6,0-1.2-0.3-1.5-0.9l-4.5-7.8c-0.3-0.5-0.3-1.2,0-1.8l4.4-7.8c0.3-0.5,0.9-0.9,1.5-0.9h8.9c0.6,0,1.2,0.3,1.5,0.9l4.4,7.8
		C117.8,59.5,117.8,60.2,117.5,60.7L117.5,60.7z"/>
</g>
</svg>
