<?xml version="1.0" encoding="utf-8"?>
<!-- Generator: Adobe Illustrator 27.0.0, SVG Export Plug-In . SVG Version: 6.00 Build 0)  -->
<svg version="1.1" id="Layer_1" xmlns="http://www.w3.org/2000/svg" xmlns:xlink="http://www.w3.org/1999/xlink" x="0px" y="0px"
	 viewBox="0 0 173.8 300.2" style="enable-background:new 0 0 173.8 300.2;" xml:space="preserve">
<style type="text/css">
	.st0{fill:#F75023;stroke:#000000;stroke-width:0.6616;stroke-miterlimit:10;}
</style>
<g>
	<path class="st0" d="M122.3,56.2c-0.3-0.2-8.6-5.4-17.9-2c-1.6,0.6-2.5,2.4-1.9,4.1c0.6,1.6,2.4,2.5,4.1,1.9
		c6.3-2.3,12.3,1.4,12.3,1.4c0.5,0.3,1.1,0.5,1.7,0.5c1.1,0,2.1-0.5,2.7-1.5C124.3,59.1,123.8,57.1,122.3,56.2L122.3,56.2z"/>
	<path class="st0" d="M95.3,54.9c-7.1-4.1-16.1,0.4-16.5,0.6c-1.6,0.8-2.2,2.7-1.4,4.3c0.6,1.1,1.7,1.7,2.8,1.7c0.5,0,1-0.1,1.4-0.3
		c0.1,0,6.4-3.1,10.4-0.8c1.5,0.9,3.5,0.4,4.3-1.2C97.3,57.7,96.8,55.8,95.3,54.9L95.3,54.9z"/>
	<path class="st0" d="M172.6,66.6c-0.6-0.7-1.5-1-2.4-1H149c6.1-4.1,6-12.9,6-12.9c-6.4,6-10.6,2.8-12.1-9.3c0-0.1,0-0.2,0-0.3
		c-0.1-0.6-0.1-1.2-0.2-1.8l0,0.1c-3-23.2-20.7-41-42.2-41s-39.2,17.8-42.2,41l0-0.1c-0.1,0.6-0.1,1.2-0.2,1.8c0,0.1,0,0.2,0,0.3
		c-1.5,12.1-5.7,15.3-12.1,9.3c0,0-0.1,8.7,6,12.9H27.6c-0.9,0-1.8,0.4-2.4,1c-0.6,0.7-0.9,1.6-0.8,2.4l3.7,36.2L7.4,119.6
		c-5.7,3-8.3,9.2-6.4,15.3l0.2,0.4c1.1,2.3,2.9,4.2,5.2,5.3c0.9,0.6,1.8,1.1,2.7,1.4l23.8,9.2l1.5,14.8c0.2,1.6,1.5,2.8,3.2,2.8
		h16.1l-34.7,68.4c-2.9,5.8-1.3,12.7,4,16.5c2.2,1.6,4.9,2.5,7.6,2.5c4.2,0,8.2-2,10.6-5.4l31.4-43.4l20.7,82.5
		c1.5,5.8,6.6,9.9,12.4,9.9c0.4,0,0.8,0,1.2-0.1l0.4-0.1c6.1-1.5,10-7.1,9.5-13.7l-7.1-80.4c8.2-1.2,30.8-4.5,32.5-4.8
		c0,0,0.1,0,0.1,0c1-0.2,2-0.5,3-0.8c0.3-0.1,0.6-0.2,0.8-0.3c0.8-0.3,1.6-0.7,2.4-1.1c0.4-0.2,0.8-0.4,1.2-0.7c0.5-0.3,1-0.6,1.5-1
		c0.6-0.4,1.2-0.8,1.7-1.3c0.3-0.2,0.6-0.5,0.9-0.8c0.6-0.6,1.2-1.2,1.7-1.8c0.3-0.3,0.6-0.7,0.9-1.1c0.3-0.4,0.6-0.8,0.9-1.2
		c0.5-0.7,0.9-1.4,1.3-2.2c0.2-0.3,0.3-0.6,0.5-1c0.4-0.9,0.8-1.7,1.1-2.7c0.1-0.2,0.1-0.4,0.2-0.6c0.3-1.1,0.6-2.1,0.7-3.2
		c0.6-4.3,0-8.6-1.7-12.4h1.2c1.6,0,3-1.2,3.2-2.8l9.9-96.9C173.5,68.2,173.2,67.3,172.6,66.6L172.6,66.6z M11.3,136.1
		c-0.5-0.2-1-0.5-1.6-0.9L9.4,135c-1.1-0.5-1.9-1.3-2.4-2.3c-0.9-3,0.5-6,3.5-7.5l18.4-12.7l1.3,13l-3.1-0.7
		c-1.7-0.4-3.4,0.7-3.8,2.4c-0.4,1.7,0.7,3.4,2.4,3.8l5.1,1.1l1.2,12L11.3,136.1z M36,247.1c-2.1,2.9-6.5,3.6-9.4,1.5
		c-2.7-1.9-3.6-5.6-2.1-8.5l41-80.9c2.1-4.1,6.2-6.6,10.8-6.6c0.5,0,2.1,0.2,2.1,0.2l19.4,32.9l-14.9-3.5L36,247.1z M110.4,286.5
		c0.2,2.8-1.1,6.1-4.4,7c-3.3,0.2-5.9-1.9-6.7-5.1l-21.8-87l-0.1-0.6c0-0.1,0-0.1,0-0.2l8.2-11.3l16.4,3.9c0.3,0.9,0.4,1.9,0.4,3
		L110.4,286.5z M98.9,129.8c-6.9,0-12.6-5.6-12.6-12.6c0-6.9,5.6-12.6,12.6-12.6c6.9,0,12.6,5.6,12.6,12.6
		C111.5,124.1,105.9,129.8,98.9,129.8z M128.4,65.6H72.6c-0.2-2.2-0.3-4.3-0.3-6.6c0-8.9,1.5-17.3,4.2-24.4c5,3.6,13.9,8.9,24.1,8.9
		c10.2,0,19.1-5.2,24.1-8.9c2.6,7.1,4.2,15.4,4.2,24.4C128.7,61.2,128.5,63.4,128.4,65.6L128.4,65.6z"/>
</g>
</svg>
