<?xml version="1.0" encoding="UTF-8"?><svg id="Layer_1" xmlns="http://www.w3.org/2000/svg" viewBox="0 0 184.89 216.17"><defs><style>.cls-1{fill:#404041;}.cls-2{fill:#1e1e1f;}.cls-3{fill:#ffdb64;}.cls-4{fill:#6d6e70;}</style></defs><rect class="cls-3" width="184.89" height="184.89" rx="10.08" ry="10.08"/><path class="cls-2" d="M28.38,157.38L79.03,25.78c.36-.93,1.26-1.55,2.26-1.55h13.25c1.7,0,2.87,1.71,2.26,3.29L45.97,159.12c-.36,.93-1.26,1.55-2.26,1.55h-13.07c-1.7,0-2.87-1.7-2.26-3.29Z"/><path class="cls-2" d="M88.09,157.38L138.73,25.78c.36-.93,1.26-1.55,2.26-1.55h13.25c1.7,0,2.87,1.71,2.26,3.29l-50.83,131.6c-.36,.93-1.26,1.55-2.26,1.55h-13.07c-1.7,0-2.87-1.7-2.26-3.29Z"/><g><path class="cls-3" d="M41.11,199.12v17.05h-3.25v-6.98h-6.24v6.98h-3.33v-17.05h3.33v6.98h6.24v-6.98h3.25Z"/><path class="cls-3" d="M42.91,199.12h3.18v17.05h-3.18v-17.05Z"/><path class="cls-3" d="M60.13,216.17h-3.5l-3.1-5.83h-1.89v5.83h-3.26v-17.05h6.25c1.52,0,2.82,.54,3.89,1.61,1.07,1.07,1.61,2.37,1.61,3.89v.17c0,2.31-1.11,4.01-3.33,5.1l3.33,6.29Zm-5.82-9c.65,0,1.21-.25,1.69-.74,.48-.48,.71-1.06,.71-1.75s-.24-1.24-.71-1.69c-.47-.46-1.03-.69-1.69-.69h-2.68v4.86h2.68Z"/><path class="cls-3" d="M71.5,199.12l.08,.24-1.67,4.29-2.31,5.86h4.6l-1.11-2.77,1.67-4.29,5.32,13.72h-3.43l-1.26-3.5h-6.98l-1.43,3.5h-3.33l6.58-17.05h3.26Z"/><path class="cls-3" d="M83.2,199.12v13.95h6.29v3.1h-9.45v-17.05h3.16Z"/><path class="cls-3" d="M103.67,216.17c-2.28,0-4.02-1.18-5.21-3.56l2.65-1.58c.78,1.46,1.66,2.19,2.64,2.19,.52,0,.97-.15,1.36-.45,.35-.33,.52-.68,.52-1.06s-.12-.75-.37-1.13c-.16-.18-.39-.41-.69-.68-.3-.27-.68-.6-1.13-.98-.86-.72-1.58-1.36-2.15-1.91-.57-.55-.98-1.02-1.24-1.41-.56-.79-.83-1.57-.83-2.33,0-1.14,.43-2.12,1.28-2.94,.89-.81,1.94-1.21,3.16-1.21,.84,0,1.62,.2,2.34,.61,.37,.18,.76,.44,1.15,.78,.4,.34,.82,.76,1.26,1.25l-2.34,2.03c-.78-1.1-1.59-1.65-2.41-1.65-.46,0-.78,.1-.98,.3-.25,.2-.38,.45-.38,.76,0,.24,.08,.48,.23,.74,.15,.16,.41,.41,.79,.74,.38,.34,.87,.77,1.48,1.3,.71,.59,1.26,1.07,1.63,1.41,.25,.22,.43,.38,.55,.48,1.11,1.07,1.66,2.3,1.66,3.69s-.46,2.47-1.37,3.33c-.9,.86-2.11,1.28-3.62,1.28Z"/><path class="cls-3" d="M123.48,199.12v17.05h-3.25v-6.98h-6.24v6.98h-3.33v-17.05h3.33v6.98h6.24v-6.98h3.25Z"/><path class="cls-3" d="M135.11,199.12l.08,.24-1.67,4.29-2.31,5.86h4.6l-1.11-2.77,1.67-4.29,5.32,13.72h-3.43l-1.26-3.5h-6.98l-1.43,3.5h-3.33l6.58-17.05h3.26Z"/><path class="cls-3" d="M156.47,199.12v17.05h-3.25v-6.98h-6.24v6.98h-3.33v-17.05h3.33v6.98h6.24v-6.98h3.25Z"/></g><polygon class="cls-1" points="136.09 96.18 56.81 85.52 144.56 74.18 148.49 63.95 52.39 76.44 47.8 88.33 134.54 100.05 136.09 96.18"/><polygon class="cls-4" points="136.02 96.22 49.28 84.5 47.82 88.38 126.95 99.01 38.61 112.24 34.62 122.55 130.69 110.06 136.02 96.22"/></svg>