<?xml version="1.0" encoding="utf-8"?>
<!-- Generator: Adobe Illustrator 27.0.0, SVG Export Plug-In . SVG Version: 6.00 Build 0)  -->
<svg version="1.1" id="Layer_1" xmlns="http://www.w3.org/2000/svg" xmlns:xlink="http://www.w3.org/1999/xlink" x="0px" y="0px"
	 viewBox="0 0 442.4 442.4" style="enable-background:new 0 0 442.4 442.4;" xml:space="preserve">
<path d="M344.1,117.1L176,295.5l-76.5-70.3c-8-7.3-20.4-6.8-27.7,1.2c-7.3,8-6.8,20.4,1.2,27.7l90.8,83.4c3.8,3.5,8.5,5.2,13.2,5.2
	c5.2,0,10.4-2.1,14.3-6.2L372.7,144c7.4-7.9,7.1-20.3-0.8-27.7C364,108.9,351.5,109.3,344.1,117.1L344.1,117.1z M344.4,0H98
	C44,0,0,44,0,98v246.4c0,54,44,98,98,98h246.4c54,0,98-44,98-98V98C442.4,44,398.4,0,344.4,0z M403.2,344.4
	c0,32.4-26.4,58.8-58.8,58.8H98c-32.4,0-58.8-26.4-58.8-58.8V98c0-32.4,26.4-58.8,58.8-58.8h246.4c32.4,0,58.8,26.4,58.8,58.8V344.4
	z"/>
</svg>
