<?xml version="1.0" encoding="utf-8"?>
<!-- Generator: Adobe Illustrator 27.0.0, SVG Export Plug-In . SVG Version: 6.00 Build 0)  -->
<svg version="1.1" id="Layer_1" xmlns="http://www.w3.org/2000/svg" xmlns:xlink="http://www.w3.org/1999/xlink" x="0px" y="0px"
	 viewBox="0 0 144.3 144.4" style="enable-background:new 0 0 144.3 144.4;" xml:space="preserve">
<path d="M119.4,24.9c-9.5,0-17.7,5.4-21.9,13.3L49.7,25.7c0-0.3,0.1-0.5,0.1-0.8C49.7,11.1,38.6,0,24.9,0C11.1,0,0,11.1,0,24.9
	s11.1,24.9,24.9,24.9c0.5,0,0.9-0.1,1.4-0.2l12.4,47.7c-8.1,4.1-13.8,12.4-13.8,22.2c0,13.8,11.1,24.9,24.9,24.9
	s24.9-11.1,24.9-24.9c0-5.2-1.5-9.9-4.2-13.9l35.1-35.1c3.9,2.7,8.7,4.2,13.9,4.2c13.8,0,24.9-11.1,24.9-24.9S133.2,24.9,119.4,24.9
	L119.4,24.9z M35.8,47.1c5-2.5,9.1-6.6,11.5-11.7l47.4,12.3c-0.1,0.7-0.2,1.4-0.2,2.1c0,5,1.5,9.7,4,13.5L63.2,98.6
	c-3.9-2.5-8.6-4.1-13.5-4.1c-0.5,0-1,0.2-1.5,0.2L35.8,47.1z"/>
</svg>
